<svg width="18" height="18" viewBox="0 0 18 18" fill="none" xmlns="http://www.w3.org/2000/svg">
<path d="M9 10.75L2.875 16.875C2.64583 17.1042 2.35417 17.2188 2 17.2188C1.64583 17.2188 1.35417 17.1042 1.125 16.875C0.895833 16.6458 0.78125 16.3542 0.78125 16C0.78125 15.6458 0.895833 15.3542 1.125 15.125L7.25 9L1.125 2.875C0.895833 2.64583 0.78125 2.35417 0.78125 2C0.78125 1.64583 0.895833 1.35417 1.125 1.125C1.35417 0.895833 1.64583 0.78125 2 0.78125C2.35417 0.78125 2.64583 0.895833 2.875 1.125L9 7.25L15.125 1.125C15.3542 0.895833 15.6458 0.78125 16 0.78125C16.3542 0.78125 16.6458 0.895833 16.875 1.125C17.1042 1.35417 17.2188 1.64583 17.2188 2C17.2188 2.35417 17.1042 2.64583 16.875 2.875L10.75 9L16.875 15.125C17.1042 15.3542 17.2188 15.6458 17.2188 16C17.2188 16.3542 17.1042 16.6458 16.875 16.875C16.6458 17.1042 16.3542 17.2188 16 17.2188C15.6458 17.2188 15.3542 17.1042 15.125 16.875L9 10.75Z" fill="#657372"/>
</svg>
