<svg width="15" height="21" viewBox="0 0 15 21" fill="none" xmlns="http://www.w3.org/2000/svg">
<path d="M14.2498 18.5009C14.664 18.5008 15 18.8365 15 19.2507C15 19.6649 14.6644 20.0008 14.2502 20.0009L1.25022 20.0047C0.836 20.0048 0.5 19.6691 0.5 19.2549C0.5 18.8407 0.83557 18.5048 1.24978 18.5047L14.2498 18.5009ZM7.6482 0.0127094L7.75 0.00585938C8.1297 0.00585938 8.4435 0.288009 8.4932 0.654089L8.5 0.755859L8.499 14.4409L12.2208 10.7205C12.4871 10.4543 12.9038 10.4301 13.1974 10.648L13.2815 10.7206C13.5477 10.9869 13.5719 11.4036 13.354 11.6972L13.2814 11.7813L8.2837 16.7779C8.0176 17.044 7.6012 17.0683 7.3076 16.8507L7.2235 16.7782L2.22003 11.7816C1.92694 11.4889 1.92661 11.014 2.21931 10.7209C2.48539 10.4545 2.90204 10.43 3.1958 10.6477L3.27997 10.7202L6.999 14.4339L7 0.755859C7 0.376159 7.2822 0.0623694 7.6482 0.0127094L7.75 0.00585938L7.6482 0.0127094Z" fill="#657372"/>
</svg>
