<svg width="26" height="19" viewBox="0 0 26 19" fill="none" xmlns="http://www.w3.org/2000/svg">
<path d="M0.125 1.1875C0.125 0.669738 0.544738 0.25 1.0625 0.25H24.5625C25.0803 0.25 25.5 0.669738 25.5 1.1875C25.5 1.70526 25.0803 2.125 24.5625 2.125H1.0625C0.544738 2.125 0.125 1.70526 0.125 1.1875ZM1.0625 17.4375C1.0625 16.9197 1.48224 16.5 2 16.5H24C24.5178 16.5 24.9375 16.9197 24.9375 17.4375C24.9375 17.9553 24.5178 18.375 24 18.375H2C1.48224 18.375 1.0625 17.9553 1.0625 17.4375ZM1.4375 8.375C0.919738 8.375 0.5 8.79475 0.5 9.3125C0.5 9.83025 0.919738 10.25 1.4375 10.25H24.5625C25.0803 10.25 25.5 9.83025 25.5 9.3125C25.5 8.79475 25.0803 8.375 24.5625 8.375H1.4375Z" fill="#657372"/>
</svg>
