<svg width="7" height="12" viewBox="0 0 7 12" fill="none" xmlns="http://www.w3.org/2000/svg">
<path d="M1.70001 11.3L6.30001 6.69999C6.40001 6.59999 6.47068 6.49165 6.51201 6.37499C6.55401 6.25832 6.57501 6.13332 6.57501 5.99999C6.57501 5.86665 6.55401 5.74165 6.51201 5.62499C6.47068 5.50832 6.40001 5.39999 6.30001 5.29999L1.70001 0.699987C1.51668 0.516654 1.28335 0.424988 1.00001 0.424988C0.716679 0.424988 0.483346 0.516654 0.300013 0.699987C0.116679 0.883321 0.025012 1.11665 0.025012 1.39999C0.025012 1.68332 0.116679 1.91665 0.300013 2.09999L4.20001 5.99999L0.300013 9.89999C0.116679 10.0833 0.025012 10.3167 0.025012 10.6C0.025012 10.8833 0.116679 11.1167 0.300013 11.3C0.483346 11.4833 0.716679 11.575 1.00001 11.575C1.28335 11.575 1.51668 11.4833 1.70001 11.3Z" fill="#657372"/>
</svg>
