<svg width="23" height="24" viewBox="0 0 23 24" fill="none" xmlns="http://www.w3.org/2000/svg">
<path d="M18.25 0.123047C20.6675 0.123047 22.6273 2.08278 22.6273 4.50026C22.6273 6.91772 20.6675 8.87746 18.25 8.87746C16.9625 8.87746 15.8049 8.32163 15.004 7.43685L9.30569 10.6924C9.43482 11.1054 9.50438 11.5447 9.50438 12.0002C9.50438 12.4559 9.43482 12.8951 9.30569 13.3081L15.0029 16.565C15.8038 15.6794 16.9619 15.123 18.25 15.123C20.6675 15.123 22.6273 17.0827 22.6273 19.5002C22.6273 21.9177 20.6675 23.8775 18.25 23.8775C15.8325 23.8775 13.8728 21.9177 13.8728 19.5002C13.8728 19.0447 13.9424 18.6054 14.0715 18.1924L8.37439 14.9356C7.57341 15.8211 6.41529 16.3775 5.12721 16.3775C2.70975 16.3775 0.75 14.4177 0.75 12.0002C0.75 9.58273 2.70975 7.62305 5.12721 7.62305C6.41466 7.62305 7.5723 8.17887 8.37324 9.06366L14.0715 5.80813C13.9424 5.39512 13.8728 4.95582 13.8728 4.50026C13.8728 2.08278 15.8325 0.123047 18.25 0.123047ZM18.25 16.998C16.8681 16.998 15.7478 18.1184 15.7478 19.5002C15.7478 20.8822 16.8681 22.0025 18.25 22.0025C19.6319 22.0025 20.7523 20.8822 20.7523 19.5002C20.7523 18.1184 19.6319 16.998 18.25 16.998ZM5.12721 9.49805C3.74528 9.49805 2.625 10.6184 2.625 12.0002C2.625 13.3822 3.74528 14.5025 5.12721 14.5025C6.50914 14.5025 7.62943 13.3822 7.62943 12.0002C7.62943 10.6184 6.50914 9.49805 5.12721 9.49805ZM18.25 1.99805C16.8681 1.99805 15.7478 3.11832 15.7478 4.50026C15.7478 5.88218 16.8681 7.00246 18.25 7.00246C19.6319 7.00246 20.7523 5.88218 20.7523 4.50026C20.7523 3.11832 19.6319 1.99805 18.25 1.99805Z" fill="#657372"/>
</svg>
